<svg xmlns="http://www.w3.org/2000/svg" xmlns:xlink="http://www.w3.org/1999/xlink" width="793.599" height="793.599" baseProfile="tiny" version="1.2" viewBox="0 0 2480 2480"><g fill="none" fill-rule="evenodd" stroke="#000" stroke-linecap="square" stroke-linejoin="bevel" stroke-width="1"><g fill="#fff" fill-opacity="1" stroke="none" font-family="MS Shell Dlg 2" font-size="32.813" font-style="normal" font-weight="400"><path fill-rule="evenodd" d="M-2,-2 L2483,-2 L2483,2483 L-2,2483 L-2,-2" transform="matrix(0.999873,0,0,0.999873,0,0)" vector-effect="none"/></g><g fill="#000" fill-opacity="0" stroke="none" font-family="MS Shell Dlg 2" font-size="32.813" font-style="normal" font-weight="400" transform="matrix(0.999873,0,0,0.999873,0,-3.43234e-15)"><rect width="2502" height="2480" x="0" y="0"/></g><g fill="#5558db" fill-opacity="1" stroke="none" font-family="MS Shell Dlg 2" font-size="32.813" font-style="normal" font-weight="400"><path fill-rule="evenodd" d="M1619.67,1874.16 L1824.77,2220.81 L2392.87,1238.74 L1771.84,1607.88 L1619.67,1874.16" transform="matrix(0.999873,0,0,0.999873,0,-3.43234e-15)" vector-effect="none"/></g><g fill="#000" fill-opacity="1" stroke="none" font-family="MS Shell Dlg 2" font-size="32.813" font-style="normal" font-weight="400"><path fill-rule="evenodd" d="M1771.84,1607.88 L1984.65,1235.75 L2392.87,1238.74 L1771.84,1607.88" transform="matrix(0.999873,0,0,0.999873,0,-3.43234e-15)" vector-effect="none"/></g><g fill="#5cbbff" fill-opacity="1" stroke="none" font-family="MS Shell Dlg 2" font-size="32.813" font-style="normal" font-weight="400"><path fill-rule="evenodd" d="M2392.87,1238.74 L2187.85,882.496 L1044.09,881.238 L1247.3,1239.84 L1984.65,1235.75 L2392.87,1238.74" transform="matrix(0.999873,0,0,0.999873,0,-3.43234e-15)" vector-effect="none"/></g><g fill="#1e4dff" fill-opacity="1" stroke="none" font-family="MS Shell Dlg 2" font-size="32.813" font-style="normal" font-weight="400"><path fill-rule="evenodd" d="M1044.09,881.238 L668.504,1525.31 L494.864,1237.17 L871.713,593.254 L676.053,249.119 L101.657,1240.31 L674.323,2224.59 L1247.3,1239.84 L1044.09,881.238" transform="matrix(0.999873,0,0,0.999873,0,-3.43234e-15)" vector-effect="none"/></g><g fill="#5cbbff" fill-opacity="1" stroke="none" font-family="MS Shell Dlg 2" font-size="32.813" font-style="normal" font-weight="400"><path fill-rule="evenodd" d="M676.053,249.119 L1827.52,253.995 L2023.49,588.535 L871.713,593.254 L676.053,249.119" transform="matrix(0.999873,0,0,0.999873,0,-3.43234e-15)" vector-effect="none"/></g></g><metadata><rdf:RDF xmlns:dc="http://purl.org/dc/elements/1.1/" xmlns:rdf="http://www.w3.org/1999/02/22-rdf-syntax-ns#" xmlns:rdfs="http://www.w3.org/2000/01/rdf-schema#"><rdf:Description dc:date="2021-02-08T15:13:32" dc:format="image/svg+xml"><dc:creator><rdf:Bag><rdf:li>Topi Tjukanov</rdf:li></rdf:Bag></dc:creator><dc:publisher><rdf:Bag><rdf:li>QGIS 3.16.2-Hannover</rdf:li></rdf:Bag></dc:publisher><dc:subject><rdf:Bag/></dc:subject></rdf:Description></rdf:RDF></metadata></svg>